<svg width="1000" height="1000" viewBox="0 0 1000 1000" fill="none" xmlns="http://www.w3.org/2000/svg">
<rect width="1000" height="1000" rx="500" fill="url(#paint0_linear_217_167)"/>
<path d="M346.455 461.235C358.003 461.235 367.265 465.084 374.242 472.783C381.218 480.361 384.707 490.826 384.707 504.178V563H354.033V508.328C354.033 501.592 352.289 496.36 348.8 492.631C345.312 488.902 340.621 487.037 334.727 487.037C328.832 487.037 324.141 488.902 320.653 492.631C317.164 496.36 315.42 501.592 315.42 508.328V563H284.566V429.479H315.42V475.85C318.548 471.4 322.818 467.851 328.231 465.205C333.644 462.558 339.719 461.235 346.455 461.235ZM462.262 536.837V563H446.565C435.378 563 426.657 560.293 420.402 554.88C414.147 549.347 411.019 540.386 411.019 527.996V487.939H398.75V462.318H411.019V437.779H441.873V462.318H462.082V487.939H441.873V528.357C441.873 531.364 442.595 533.529 444.039 534.852C445.482 536.175 447.888 536.837 451.256 536.837H462.262ZM607.918 461.235C620.428 461.235 630.352 465.024 637.69 472.602C645.147 480.181 648.876 490.706 648.876 504.178V563H618.203V508.328C618.203 501.833 616.458 496.841 612.97 493.352C609.602 489.744 604.911 487.939 598.896 487.939C592.882 487.939 588.13 489.744 584.642 493.352C581.274 496.841 579.59 501.833 579.59 508.328V563H548.916V508.328C548.916 501.833 547.172 496.841 543.683 493.352C540.315 489.744 535.624 487.939 529.609 487.939C523.595 487.939 518.844 489.744 515.355 493.352C511.987 496.841 510.303 501.833 510.303 508.328V563H479.449V462.318H510.303V474.948C513.431 470.738 517.52 467.43 522.573 465.024C527.625 462.498 533.338 461.235 539.714 461.235C547.292 461.235 554.028 462.859 559.922 466.107C565.937 469.355 570.628 473.986 573.996 480C577.485 474.467 582.236 469.956 588.251 466.468C594.265 462.979 600.821 461.235 607.918 461.235ZM701.309 429.479V563H670.455V429.479H701.309Z" fill="white"/>
<path d="M332.713 382L333.167 382.123C338.884 383.671 343.077 385.39 346.089 388.01C349.234 390.746 350.713 394.127 351.748 398.071L351.863 398.513V435.734H389.183C389.278 429.475 389.695 424.781 391.074 421.403C391.959 419.234 393.269 417.5 395.137 416.217C396.926 414.988 399.009 414.324 401.188 413.886L401.533 413.816H449.558L450.169 414.051C453.437 415.304 456.536 416.689 458.995 419.411C461.459 422.138 462.941 425.813 464.027 430.935L464.104 431.298V446.517H516.778V453.587H457.034V432.048C456.071 427.664 454.961 425.493 453.748 424.15C452.58 422.857 451.019 421.985 448.24 420.887H402.252C400.706 421.223 399.766 421.615 399.14 422.045C398.549 422.451 398.051 423.017 397.62 424.074C396.613 426.542 396.229 430.892 396.229 439.269V442.805H344.793V399.437C343.959 396.42 343.003 394.697 341.448 393.344C339.736 391.854 336.946 390.505 331.767 389.07H273.33C270.657 389.815 269.011 390.515 267.502 391.82C265.924 393.186 264.238 395.445 262.07 399.792V439.269H255V398.156L255.355 397.425C257.842 392.302 260.131 388.849 262.876 386.473C265.695 384.034 268.697 382.994 271.932 382.122L272.384 382H332.713Z" fill="white"/>
<path d="M261.712 539.168V595.269C262.04 600.826 262.842 603.748 264.556 605.667C266.265 607.58 269.514 609.185 276.642 610.225H329.253C333.186 609.031 334.88 607.626 335.836 605.94C336.977 603.928 337.479 600.85 337.541 595.362V579.999H344.611V595.397L344.611 595.416C344.55 600.922 344.112 605.678 341.987 609.427C339.712 613.439 335.906 615.677 330.737 617.158L330.26 617.295H276.133L275.885 617.26C268.233 616.17 262.759 614.268 259.284 610.378C255.806 606.484 254.978 601.301 254.648 595.58L254.642 595.479V539.168H261.712Z" fill="white"/>
<path d="M261.7 446V468.428L215.572 495.973V496.03L261.7 520.572V543L198 510.725V482.373L261.7 446Z" fill="white"/>
<path d="M468.165 587.246V594.316H355.041V587.246H468.165Z" fill="white"/>
<path d="M510.941 587.246V594.316H481.599V587.246H510.941Z" fill="white"/>
<path d="M744.002 534V579.587C744.648 583.884 744.267 588.161 740.431 590.913C738.722 592.14 736.609 592.826 734.335 593.248C732.037 593.674 729.3 593.878 726.144 593.961L726.099 593.962H534.273V586.891H725.996C728.99 586.812 731.289 586.622 733.045 586.296C734.832 585.965 735.795 585.538 736.309 585.169C736.834 584.792 737.565 584.077 736.976 580.417L736.931 580.138V535.985L744.002 534Z" fill="white"/>
<path d="M737 446L769.081 462.567L801.163 479.133V500.368L737 537.914L737 517.737L778.876 489.94L737 467.211V446Z" fill="white"/>
<path d="M620.53 446.902V453.973H534.273V446.902H620.53Z" fill="white"/>
<path d="M644.569 399.883L651.64 399.883L651.64 449.375L644.569 449.375L644.569 399.883Z" fill="white"/>
<defs>
<linearGradient id="paint0_linear_217_167" x1="54" y1="-1.83213e-05" x2="913" y2="957.5" gradientUnits="userSpaceOnUse">
<stop stop-color="#1597FB" stop-opacity="0"/>
<stop offset="1" stop-color="#40FFCE"/>
</linearGradient>
</defs>
</svg>
